# xmcd
#
# Track frame offsets:
#	150
#	17054
#	29060
#	42820
#	54523
#	72064
#	85624
#	98063
#	116039
#	129550
#	142166
#	159850
#	168632
#	181154
#
# Disc length: 2600 seconds
#
# Revision: 1
# Processed by: cddbd v1.5.2PL0 Copyright (c) Steve Scherf et al.
# Submitted via: audiograbber 1.83.01
#
DISCID=b70a260e
DTITLE=Michal Tucny - Country Minstrels
DYEAR=1900
DGENRE=Country
TTITLE0=The last cowboy
TTITLE1=Texas on a saturday night
TTITLE2=You win again
TTITLE3=Ha-ha Ja-ja
TTITLE4=Tam u nebeskych bran
TTITLE5=Milujeme Prahu
TTITLE6=Ten pansky koci
TTITLE7=Gotta slow down
TTITLE8=Bellow the border
TTITLE9=San Antonio rose
TTITLE10=Feelin Lousy,hit the road
TTITLE11=Country pickin
TTITLE12=Sweet dreams
TTITLE13=Az prijde ten den
EXTD=
EXTT0=
EXTT1=
EXTT2=
EXTT3=
EXTT4=
EXTT5=
EXTT6=
EXTT7=
EXTT8=
EXTT9=
EXTT10=
EXTT11=
EXTT12=
EXTT13=
PLAYORDER=
